<?xml version="1.0" standalone="no"?><!DOCTYPE svg PUBLIC "-//W3C//DTD SVG 1.1//EN" "http://www.w3.org/Graphics/SVG/1.1/DTD/svg11.dtd"><svg t="1561021135601" class="icon" viewBox="0 0 1024 1024" version="1.1" xmlns="http://www.w3.org/2000/svg" p-id="10380" xmlns:xlink="http://www.w3.org/1999/xlink" width="128" height="128"><defs><style type="text/css"></style></defs><path d="M593.787 702.858C469.554 668.376 475.13 583.694 475.13 583.694c102.939-109.022 96.347-319.964 96.347-319.964-25.86-125.247-145.531-138.938-145.531-138.938h-86.713c-130.823 5.577-148.571 136.402-148.571 136.402-19.269 213.478 87.217 306.274 89.246 323.515 6.084 58.314-13.183 100.908-108.515 118.149C19.778 730.238 0.003 794.636 0.003 794.636v104.46H749.46V781.958c-37.016-52.731-155.673-79.1-155.673-79.1zM655.979 421.533c3.459 2.406 7.321 3.609 11.182 3.609v0.001h334.457l0.013-0.037c1.441 0 2.9-0.15 4.359-0.499 10.461-2.501 18.002-13.557 18.01-26.41 0.008-7.155-2.35-14.019-6.554-19.079-0.084-0.102-0.179-0.19-0.264-0.29l-64.346-77.532-0.002 0.002c0-0.001 0-0.002-0.002-0.002-8.734-10.524-22.895-10.524-31.63 0-8.73 10.521-8.733 27.574-0.005 38.099l-0.006 0.004 26.435 31.851H667.161c-12.35 0-22.363 12.063-22.363 26.948 0 9.625 4.262 18.522 11.181 23.335z" p-id="10381" fill="#ffffff"></path><path d="M1001.639 545.314v-0.002H667.162l-0.02 0.06a18.76 18.76 0 0 0-4.325 0.499c-10.457 2.498-18 13.541-18.019 26.387-0.015 7.177 2.354 14.064 6.573 19.131 0.075 0.088 0.155 0.166 0.23 0.254l64.209 77.336c0.047 0.058 0.087 0.121 0.137 0.179 5.65 6.802 13.882 9.464 21.601 6.973 7.718-2.494 13.747-9.756 15.814-19.056 2.07-9.296-0.139-19.211-5.778-26.02l-26.434-31.85h280.488c12.341-0.015 22.343-12.074 22.343-26.947 0-14.875-10.002-26.93-22.342-26.944z" p-id="10382" fill="#ffffff"></path></svg>