<?xml version="1.0" standalone="no"?><!DOCTYPE svg PUBLIC "-//W3C//DTD SVG 1.1//EN" "http://www.w3.org/Graphics/SVG/1.1/DTD/svg11.dtd"><svg t="1561020941730" class="icon" viewBox="0 0 1024 1024" version="1.1" xmlns="http://www.w3.org/2000/svg" p-id="9076" xmlns:xlink="http://www.w3.org/1999/xlink" width="128" height="128"><defs><style type="text/css"></style></defs><path d="M519.314286 650.971429c160.914286 0 263.314286-212.114286 263.314285-329.142858S782.628571 0 519.314286 0 248.685714 204.8 248.685714 321.828571c0 109.714286 109.714286 329.142857 270.628572 329.142858z m438.857143 160.914285c-65.828571-51.2-263.314286-138.971429-263.314286-138.971428l-124.342857 234.057143-21.942857-58.514286 36.571428-73.142857-73.142857-73.142857-73.142857 73.142857 36.571428 73.142857-21.942857 58.514286-124.342857-241.371429S131.657143 753.371429 65.828571 804.571429c-29.257143 29.257143-51.2 73.142857-65.828571 109.714285V1024h1024v-117.028571c-14.628571-36.571429-36.571429-73.142857-65.828571-95.085715z m0 0" p-id="9077"></path></svg>