<?xml version="1.0" standalone="no"?><!DOCTYPE svg PUBLIC "-//W3C//DTD SVG 1.1//EN" "http://www.w3.org/Graphics/SVG/1.1/DTD/svg11.dtd"><svg t="1561021005024" class="icon" viewBox="0 0 1024 1024" version="1.1" xmlns="http://www.w3.org/2000/svg" p-id="9454" xmlns:xlink="http://www.w3.org/1999/xlink" width="128" height="128"><defs><style type="text/css"></style></defs><path d="M904.529468 934.845469l-8.027557 14.960446H118.193798l0.486519-22.744744c0.851408-42.935265 5.473334-101.074237 21.041929-158.118541 16.055113-58.74712 43.786673-116.277943 90.978976-155.807578l6.81126-5.473334 8.757335 0.121629 103.26357-0.973037V653.151206l-94.506236-0.729778c-35.394227 32.596745-57.044305 79.545789-70.301936 127.954389-11.919705 43.543414-16.906521 88.059865-18.852595 125.035277l692.437582-0.12163c1.216296-42.083858-11.554816-91.952013-27.123412-138.657798-15.811854-47.070673-38.313339-87.208457-65.31512-114.940016h-107.885497V606.93194h123.332462l9.487112 3.040741c36.124005 32.596745 65.43675 85.748901 84.654235 143.036465 19.947262 59.720157 34.907709 130.265352 29.069486 181.836323z m-385.444353-59.598528l-61.666231-44.75971 40.016154-155.0778-15.082076-23.96104 1.216296-24.569189c28.826226-1.459556 37.218672-1.459556 66.044899 0l1.216296 24.569189-15.203706 23.96104 45.246229 154.956171-61.787861 44.881339z m178.552323-449.664805c-15.811854 52.787267-37.461931 92.316902-66.409788 121.629647-31.13719 31.623708-70.180306 50.476304-119.197054 60.449935l-4.013778 0.729777-3.892149-0.608148c-44.273192-7.176149-83.316308-25.298967-115.791424-57.165934-29.799264-29.191115-53.638674-69.937047-70.301936-124.06224-13.86578-7.297779-24.325929-19.460744-31.380449-35.637487-7.784297-17.879558-11.311557-41.23245-10.946669-68.84238l0.12163-10.703409 9.243853-5.959853c3.162371-2.067704 6.324742-3.892149 9.365483-5.473334-13.987409-83.073049-10.33852-153.861504 41.718969-200.932177 41.47571-29.069486 114.210239-9.243853 180.984915-18.852595 190.350398-27.4883 189.012472 65.43675 207.986697 223.190402 1.094667 0.608148 2.189334 1.337926 3.284 2.067704l9.243854 6.081483 0.121629 10.703409c0.486519 27.123411-2.919112 49.989785-10.460149 67.747713-6.324742 16.055113-16.298373 28.218078-29.677634 35.637487z m-22.866374-82.95142l-2.919112-9.365483-6.203112 0.364889-3.527259-18.001187c-2.797482-14.109039-6.93289-86.721938-12.527854-98.641644-16.420002 6.689631-34.907709-5.594964-51.57097-14.838817l-8.514076 25.420596-13.62252-1.702815 1.824444-15.446965-14.352298 22.014966-12.771113-2.432593 12.649483-32.840005c-67.382825 45.002969-183.417508 42.692006-198.742843 22.623115-2.310963 2.919112-2.797482 6.93289-4.135408 10.460149-3.162371 12.162965-6.689631 87.573346-9.852002 99.614681l-0.851407 4.500297-0.364889-0.121629c-0.729778 2.432593-1.337926 4.621927-1.946074 6.446371-5.716593-3.648889-17.39304-0.729778-27.974819 0.729778 0.973037 13.379261 3.284 24.690818 7.176149 33.448153 3.892149 9.000594 9.122224 14.717187 15.811854 16.784891l11.433187 3.40563 3.040741 11.068298c14.717187 51.935859 35.880746 89.64105 62.396009 115.669795 24.690818 24.2043 54.368452 38.434969 88.059865 44.51645 38.313339-8.392446 68.720751-23.352892 92.681791-47.557192 25.420596-25.785485 44.273192-62.396009 58.50386-113.115571l2.919112-10.58178 10.825038-3.648889c6.568001-2.189334 11.798076-8.149186 15.568595-17.028151 3.648889-8.757335 5.959853-19.825632 6.93289-32.840005-6.324742 0.12163-12.649483 0.243259-19.947262 1.094667z" fill="" p-id="9455"></path></svg>