<?xml version="1.0" standalone="no"?><!DOCTYPE svg PUBLIC "-//W3C//DTD SVG 1.1//EN" "http://www.w3.org/Graphics/SVG/1.1/DTD/svg11.dtd"><svg t="1561020985245" class="icon" viewBox="0 0 1024 1024" version="1.1" xmlns="http://www.w3.org/2000/svg" p-id="9328" xmlns:xlink="http://www.w3.org/1999/xlink" width="128" height="128"><defs><style type="text/css"></style></defs><path d="M338.68489999999997 557.0345c57.76049999999999 79.32854999999999 146.29545000000002 85.50780000000002 172.02465 85.50780000000002h2.39715c25.7271 0 114.261-6.17925 172.02465-85.50780000000002 22.701-31.27635 45.9081-87.7758 55.995450000000005-113.88195 34.1775-40.861799999999995 47.16705-79.70549999999999 38.591699999999996-115.52310000000001-5.16285-21.24255-17.60325-38.9928-34.4757-50.8746 12.2787-37.9113 12.026700000000002-87.09644999999999-3.73905-130.22835C719.30675 85.10885000000002 678.95 41.84989999999999 621.6935 17.763949999999966c-45.0219-18.91785-87.7758-20.93595-104.0445-20.93595h-11.3505c-16.2687 0-59.023649999999996 2.0191500000000002-104.0445 20.93595-57.2565 24.08805-97.61325 67.34594999999999-119.93624999999999 128.6376-15.764699999999998 43.129799999999996-16.0167 92.3181-10.720500000000001 135.70305-15.619799999999998 13.618500000000001-26.27415 32.584649999999996-29.095499999999998 54.01725-6.974100000000001 27.20025 6.0165 66.0429 40.19295 106.90575 10.08945 26.23215 33.29445 82.73265 55.995450000000005 114.00794999999998z m-19.295849999999998-229.27800000000002c18.6627-7.061249999999999 31.27635 20.93595 35.8176 33.420449999999995-5.172300000000001-16.0167-19.421850000000003-63.68879999999999-21.6909-114.00794999999998 16.89975-23.584049999999998 50.44725-63.05775 90.42495-69.48900000000002 0 0 86.26380000000002 103.1625 263.7096 101.14649999999999-5.04315 37.5816-14.7546 69.61605-18.7929 82.3536 4.54125-12.4845 17.15175-40.3557 35.8176-33.420449999999995 11.35155 4.2861 30.39435 26.8611-19.673849999999998 81.72149999999999 0 0-28.62825 77.56139999999999-51.8322 109.59585-34.30245 47.16705-87.65085 58.8966-119.81025 58.8966-0.252 0-0.75705 0-1.2610500000000002-0.12705-0.504 0-0.8830499999999999 0-1.2610500000000002 0.12705-32.1594 0-85.50780000000002-11.853449999999999-119.81025-58.8966-23.332050000000002-32.03445-51.8322-109.59585-51.8322-109.59585-50.3202-54.86145-31.15035-77.4354-19.800900000000002-81.72149999999999z m659.8368 466.12649999999996c-54.48135-69.7431-296.7531-119.05214999999998-296.7531-119.05214999999998 32.1594 184.25505-170.50845 296.37195-170.50845 296.37195s-202.54185-112.119-170.50845-296.37195c0 0-242.39249999999998 49.4382-296.7531 119.05214999999998-57.635549999999995 73.9032-50.82525 146.67345-46.664100000000005 177.06674999999998 4.2861 30.39435 11.729549999999998 48.80714999999999 60.914699999999996 59.023649999999996H964.7180000000001c49.18620000000001-10.08945 56.62649999999999-28.62825 60.914699999999996-59.023649999999996 4.41315-30.39435 11.2245-103.1625-46.41105-177.06674999999998z" fill="" p-id="9329"></path></svg>