<?xml version="1.0" standalone="no"?><!DOCTYPE svg PUBLIC "-//W3C//DTD SVG 1.1//EN" "http://www.w3.org/Graphics/SVG/1.1/DTD/svg11.dtd"><svg t="1561020887969" class="icon" viewBox="0 0 1024 1024" version="1.1" xmlns="http://www.w3.org/2000/svg" p-id="8766" width="128" height="128" xmlns:xlink="http://www.w3.org/1999/xlink"><defs><style type="text/css"></style></defs><path d="M229.376 354.304s-23.552 168.96 48.128 168.96c0 0 11.264 236.544 235.52 236.544S745.472 522.24 745.472 522.24c68.608 0 51.2-155.648 50.176-167.936l5.12-3.072v-2.048c-1.024-25.6-10.24-245.76-96.256-256 0 0 3.072-93.184-185.344-93.184-32.768 0-74.752 3.072-114.688 12.288-35.84 8.192-69.632 21.504-93.184 41.984-75.776 63.488-88.064 125.952-88.064 295.936l5.12 3.072 1.024 1.024z m460.8 39.936c-12.288-29.696-41.984-51.2-75.776-51.2-31.744 0-58.368 17.408-72.704 43.008H481.28c-13.312-25.6-40.96-43.008-72.704-43.008-33.792 0-63.488 20.48-75.776 51.2l-31.744-23.552c-5.12-62.464-6.144-195.584 82.944-195.584 58.368 0 73.728 35.84 132.096 35.84s44.032-35.84 114.688-35.84c61.44 0 80.896 125.952 84.992 198.656l-25.6 20.48zM665.6 425.984c0 28.672-22.528 51.2-51.2 51.2s-51.2-22.528-51.2-51.2 22.528-51.2 51.2-51.2 51.2 22.528 51.2 51.2z m-256-51.2c28.672 0 51.2 22.528 51.2 51.2s-22.528 51.2-51.2 51.2-51.2-22.528-51.2-51.2 22.528-51.2 51.2-51.2zM744.448 481.28c-21.504 0-38.912 17.408-39.936 38.912 0 1.024-3.072 53.248-29.696 104.448-32.768 63.488-86.016 94.208-162.816 94.208-75.776 0-131.072-31.744-164.864-94.208-26.624-50.176-30.72-103.424-30.72-103.424-1.024-21.504-18.432-37.888-39.936-38.912-9.216-11.264-14.336-55.296-10.24-99.328l60.416 46.08c1.024 44.032 37.888 78.848 81.92 78.848 45.056 0 81.92-36.864 81.92-81.92v-8.192H532.48v8.192c0 45.056 36.864 81.92 81.92 81.92 44.032 0 79.872-34.816 81.92-78.848l61.44-46.08c2.048 44.032-3.072 88.064-13.312 98.304zM972.8 1010.688l-38.912-146.432c-6.144-21.504-23.552-38.912-45.056-44.032l-157.696-36.864c-15.36-3.072-30.72-5.12-46.08-5.12-4.096 0-8.192 3.072-10.24 7.168L594.944 993.28H593.92l-40.96-112.64 27.648-8.192c6.144-2.048 9.216-8.192 6.144-13.312l-21.504-53.248c-1.024-4.096-5.12-6.144-9.216-6.144h-88.064c-4.096 0-8.192 3.072-9.216 6.144l-21.504 53.248c-2.048 5.12 1.024 12.288 6.144 13.312l27.648 8.192-40.96 112.64h-1.024l-79.872-207.872c-1.024-4.096-5.12-7.168-10.24-7.168-15.36 0-30.72 2.048-46.08 5.12l-157.696 36.864c-22.528 5.12-39.936 22.528-45.056 44.032L51.2 1010.688c-2.048 6.144 3.072 13.312 10.24 13.312h901.12c7.168 0 11.264-6.144 10.24-13.312z" p-id="8767"></path></svg>