<?xml version="1.0" standalone="no"?><!DOCTYPE svg PUBLIC "-//W3C//DTD SVG 1.1//EN" "http://www.w3.org/Graphics/SVG/1.1/DTD/svg11.dtd"><svg t="1561020970410" class="icon" viewBox="0 0 1024 1024" version="1.1" xmlns="http://www.w3.org/2000/svg" p-id="9202" xmlns:xlink="http://www.w3.org/1999/xlink" width="128" height="128"><defs><style type="text/css"></style></defs><path d="M422.33 431.857c-5.489 0-10.822-0.402-15.856-1.202-4.995-0.794-9.392-2-13.434-3.68-6.81-2.834-11.946-7.713-15.702-14.903-2.769-5.287-4.883-11.36-6.673-19.114a1011.9 1011.9 0 0 1-2.618-11.807l-0.174-0.787c-0.607-2.78-1.2-5.516-1.818-8.243l-0.109-0.49-0.137-0.496a61.867 61.867 0 0 0-0.495-1.595l-0.055-0.165a48.457 48.457 0 0 1-0.502-1.643c-0.226-0.801-0.44-1.61-0.65-2.414a85.405 85.405 0 0 0-0.816-3.001l-2.128-7.17-6.246-4.103c-0.456-0.3-0.695-0.676-0.782-1.225l-0.087-0.511c-0.125-0.71-0.23-1.31-0.215-1.908 0.105-4.21 0.243-8.419 0.385-12.627l0.105-3.32c0.034-1.018 0.666-1.77 1.697-2.04l1.02-0.274c1.464-0.397 3.084-0.836 4.638-1.05 8.566-1.158 17.73-2.392 26.999-3.501 9.94-1.193 20.515-1.734 34.297-1.753h0.192c0.634-0.014 1.419-0.017 2.206-0.017 14.782 0 29.881 1.405 44.866 4.174 8.507 1.562 16.81 4.251 24.141 6.621 5.376 1.74 9.51 2.84 13.401 3.57 2.1 0.393 4.268 0.608 6.456 0.641l-17.68 45.643c-1.859 4.8-3.763 9.013-5.82 12.88-4.59 8.613-10.613 16.132-17.894 22.342-4.316 3.67-9.582 6.366-16.567 8.485-7.435 2.25-15.575 3.668-24.89 4.338a124.27 124.27 0 0 1-9.056 0.345z m-18.346-8.675c1.928 0.481 3.73 0.891 5.553 1.166a98.304 98.304 0 0 0 14.562 1.087c8.567 0 17.295-1.147 25.94-3.41 7.274-1.909 13.024-4.949 17.583-9.298 3.386-3.224 6.372-7.134 9.392-12.295 4.91-8.391 8.479-17.205 10.589-26.188 1.567-6.702 2.097-12.667 1.61-18.24l-0.97-11.176-9.967-5.197c-3.349-1.777-6.921-2.667-11.6-3.729l-1.023-0.234c-9.47-2.184-19.486-3.206-33.462-3.415l-0.69-0.01-3.434 0.18c-3.306 0.171-7.421 0.389-11.471 0.72-8.124 0.662-15.427 1.858-22.314 3.659l-11.994 3.225-2.848 12.045c-0.38 1.629-0.573 3.219-0.809 5.289l-0.01 0.106a90.286 90.286 0 0 1-0.185 1.554c-0.58 4.69-0.646 9.344-0.201 13.843 0.646 6.525 1.645 15.13 3.691 23.715 1.576 6.627 3.868 12.123 7.004 16.796 1.646 2.452 3.497 4.398 5.664 5.953l5.35 3.851h4.04v0.003z m204.349 8.126c-8.662 0-16.6-0.725-24.253-2.21-7.452-1.451-13.91-3.702-19.731-6.88-8.313-4.537-15.183-11.364-20.403-20.295a158.398 158.398 0 0 1-9.436-18.942l-18.85-45.157c4.529-0.095 9.236-0.934 14.365-2.558 2.466-0.779 4.885-1.631 7.229-2.456 2.197-0.772 4.455-1.566 6.643-2.276 8.125-2.627 17.1-4.506 28.228-5.912 10.4-1.314 21.042-1.953 32.512-1.953 4.69 0 9.606 0.111 14.596 0.335l0.74 0.036c7.77 0.348 15.806 0.706 23.76 1.259 9.872 0.688 19.625 2.147 30.462 3.85 0.6 0.089 1.17 0.243 1.735 0.387l0.356 0.095c0.897 0.231 1.492 0.643 1.571 1.938 0.039 0.663 0.091 1.364 0.148 2.06l0.035 0.456c0.118 1.49 0.222 2.868 0.266 4.325 0.078 2.621 0.091 5.215 0.091 7.997l-3.037-5.512-4.327 14.91-0.043 0.034-2.028 7.097-7.412 25.616 1.297-0.729c-1.64 6.678-3.595 13.525-6.274 20.055-1.822 4.452-3.88 8.095-6.289 11.143-3.863 4.906-8.779 8.051-15.951 10.207-5.548 1.655-11.707 2.61-18.812 2.918-2.438 0.106-4.857 0.162-7.188 0.162z m-9.59-99.36c-3.028 0.11-6.795 0.252-10.462 0.488-6.034 0.39-12.35 1.253-19.305 2.632-4.11 0.814-8.96 1.87-13.82 3.544l-12.69 4.376-1.036 13.387a45.366 45.366 0 0 0-0.121 2.357c-0.131 5.282 0.761 10.345 2.149 16.318 2.814 12.173 7.7 22.5 14.943 31.554 5.955 7.434 13.472 12.163 22.355 14.048 9.736 2.068 18.614 3.075 27.164 3.075l0.949-0.005c5.576-0.048 12.123-0.334 18.662-2.106 5.906-1.604 9.952-3.702 13.14-6.8 2.936-2.847 5.255-6.569 7.074-11.361 3.724-9.798 5.789-20.551 6.142-31.958l0.017-0.657c0.106-3.784-0.052-7.543-0.194-11.18l-0.074-1.76a43.31 43.31 0 0 0-0.24-3.468l-0.32-2.84-1.096-2.642a37.63 37.63 0 0 0-0.388-0.917l-3.91-8.813-9.296-2.59c-10.827-3.016-21.625-4.057-35.54-4.764l-0.901-0.043-3.202 0.124z m93.37 272.602L564.887 836.098l-18.863-55.163 34.827-69.625-69.69-69.615-69.704 69.615 34.862 69.625-22.474 56.47L330.17 604.55S66.653 743.95 66.653 881.94c0 38.12 15.71 73.33 54.182 73.33H903.14c38.237 0 54.354-34.91 54.354-72.796 0-129.586-265.381-277.925-265.381-277.925z m48.312-285.2l-0.17-10.882-9.135-6.12c-1.118-0.775-2.214-1.444-3.306-2.112C709.12 139.669 710.383 44.936 522.87 72.96c-65.748 9.804-137.509-10.45-178.36 19.19-51.375 48.006-55.004 120.056-41.057 204.612a94.489 94.489 0 0 0-9.267 5.602l-9.145 6.122-0.164 10.878c-0.474 28.163 3.08 51.934 10.733 70.134 6.96 16.564 17.214 28.882 30.944 36.294 16.332 55.176 39.801 96.6 69.165 126.39 32.012 32.495 70.504 50.954 114.071 58.245l3.89 0.618 3.917-0.792c48.235-10.11 86.763-29.373 117.445-61.563 28.486-29.812 49.718-70.064 65.323-123.825 13.215-7.628 23.125-20.054 29.785-36.472 7.359-18.093 10.73-41.442 10.274-69.044z m-49.705 53.336c-3.737 9.143-8.849 15.16-15.295 17.391l-10.628 3.707-2.902 10.744c-13.968 51.569-32.656 88.958-57.674 115.16-23.639 24.7-53.611 39.955-91.331 48.465-33.174-6.217-62.434-20.655-86.737-45.32-26.084-26.51-46.9-64.986-61.361-117.836l-3.066-11.246-11.256-3.462c-6.595-2-11.806-7.898-15.603-17.014-3.801-8.974-6.121-20.476-7.078-34.135 10.31-1.548 21.86-4.476 27.555-0.754 0.624-1.933 1.243-4.087 1.929-6.562l0.303 0.043 0.84-4.496c3.11-12.277 6.604-89.114 9.735-101.49 1.228-3.616 1.67-7.718 4.041-10.624 15.101 20.479 129.383 22.804 195.723-23.012l-12.393 33.425 12.602 2.472 14.164-22.513-1.78 15.77 13.421 1.762 8.331-25.89c16.44 9.373 34.64 21.924 50.88 15.1 5.402 12.156 9.571 86.184 12.266 100.474l3.507 18.323 6.1-0.38 2.853 9.559c7.187-0.87 13.477-1.02 19.68-1.127-0.936 13.321-3.212 24.561-6.826 33.466z" fill="#333333" p-id="9203"></path></svg>